<mxfile host="65bd71144e">
    <diagram id="GC3d5SEIMlqQDpdu6AJr" name="Page-1">
        <mxGraphModel dx="788" dy="294" grid="1" gridSize="10" guides="1" tooltips="1" connect="1" arrows="1" fold="1" page="1" pageScale="1" pageWidth="850" pageHeight="1100" math="0" shadow="0">
            <root>
                <mxCell id="0"/>
                <mxCell id="1" parent="0"/>
                <mxCell id="wi9Bhf0zNv-aggHsFR5M-1" value="" style="whiteSpace=wrap;html=1;aspect=fixed;" parent="1" vertex="1">
                    <mxGeometry x="220" y="30" width="50" height="50" as="geometry"/>
                </mxCell>
                <mxCell id="wi9Bhf0zNv-aggHsFR5M-2" value="" style="whiteSpace=wrap;html=1;aspect=fixed;" parent="1" vertex="1">
                    <mxGeometry x="272" y="30" width="50" height="50" as="geometry"/>
                </mxCell>
                <mxCell id="wi9Bhf0zNv-aggHsFR5M-3" value="" style="whiteSpace=wrap;html=1;aspect=fixed;" parent="1" vertex="1">
                    <mxGeometry x="324" y="30" width="50" height="50" as="geometry"/>
                </mxCell>
                <mxCell id="wi9Bhf0zNv-aggHsFR5M-4" value="" style="whiteSpace=wrap;html=1;aspect=fixed;" parent="1" vertex="1">
                    <mxGeometry x="376" y="30" width="50" height="50" as="geometry"/>
                </mxCell>
                <mxCell id="wi9Bhf0zNv-aggHsFR5M-5" value="" style="whiteSpace=wrap;html=1;aspect=fixed;" parent="1" vertex="1">
                    <mxGeometry x="220" y="82" width="50" height="50" as="geometry"/>
                </mxCell>
                <mxCell id="wi9Bhf0zNv-aggHsFR5M-6" value="" style="whiteSpace=wrap;html=1;aspect=fixed;" parent="1" vertex="1">
                    <mxGeometry x="272" y="82" width="50" height="50" as="geometry"/>
                </mxCell>
                <mxCell id="wi9Bhf0zNv-aggHsFR5M-7" value="" style="whiteSpace=wrap;html=1;aspect=fixed;" parent="1" vertex="1">
                    <mxGeometry x="324" y="82" width="50" height="50" as="geometry"/>
                </mxCell>
                <mxCell id="wi9Bhf0zNv-aggHsFR5M-8" value="" style="whiteSpace=wrap;html=1;aspect=fixed;" parent="1" vertex="1">
                    <mxGeometry x="376" y="82" width="50" height="50" as="geometry"/>
                </mxCell>
                <mxCell id="wi9Bhf0zNv-aggHsFR5M-9" value="" style="whiteSpace=wrap;html=1;aspect=fixed;" parent="1" vertex="1">
                    <mxGeometry x="220" y="134" width="50" height="50" as="geometry"/>
                </mxCell>
                <mxCell id="wi9Bhf0zNv-aggHsFR5M-10" value="" style="whiteSpace=wrap;html=1;aspect=fixed;" parent="1" vertex="1">
                    <mxGeometry x="272" y="134" width="50" height="50" as="geometry"/>
                </mxCell>
                <mxCell id="wi9Bhf0zNv-aggHsFR5M-11" value="" style="whiteSpace=wrap;html=1;aspect=fixed;" parent="1" vertex="1">
                    <mxGeometry x="324" y="134" width="50" height="50" as="geometry"/>
                </mxCell>
                <mxCell id="wi9Bhf0zNv-aggHsFR5M-12" value="" style="whiteSpace=wrap;html=1;aspect=fixed;" parent="1" vertex="1">
                    <mxGeometry x="376" y="134" width="50" height="50" as="geometry"/>
                </mxCell>
                <mxCell id="CsA70eIJGZtUb_FbTeEb-1" value="" style="shape=mxgraph.signs.transportation.taxi;html=1;pointerEvents=1;fillColor=#000000;strokeColor=none;verticalLabelPosition=bottom;verticalAlign=top;align=center;" parent="1" vertex="1">
                    <mxGeometry x="227" y="35" width="37" height="40" as="geometry"/>
                </mxCell>
                <mxCell id="CsA70eIJGZtUb_FbTeEb-2" value="" style="whiteSpace=wrap;html=1;aspect=fixed;" parent="1" vertex="1">
                    <mxGeometry x="428" y="30" width="50" height="50" as="geometry"/>
                </mxCell>
                <mxCell id="CsA70eIJGZtUb_FbTeEb-3" value="" style="whiteSpace=wrap;html=1;aspect=fixed;" parent="1" vertex="1">
                    <mxGeometry x="428" y="82" width="50" height="50" as="geometry"/>
                </mxCell>
                <mxCell id="CsA70eIJGZtUb_FbTeEb-4" value="" style="whiteSpace=wrap;html=1;aspect=fixed;" parent="1" vertex="1">
                    <mxGeometry x="428" y="134" width="50" height="50" as="geometry"/>
                </mxCell>
                <mxCell id="CsA70eIJGZtUb_FbTeEb-5" value="" style="whiteSpace=wrap;html=1;aspect=fixed;" parent="1" vertex="1">
                    <mxGeometry x="480" y="30" width="50" height="50" as="geometry"/>
                </mxCell>
                <mxCell id="CsA70eIJGZtUb_FbTeEb-6" value="" style="whiteSpace=wrap;html=1;aspect=fixed;" parent="1" vertex="1">
                    <mxGeometry x="480" y="82" width="50" height="50" as="geometry"/>
                </mxCell>
                <mxCell id="CsA70eIJGZtUb_FbTeEb-7" value="" style="whiteSpace=wrap;html=1;aspect=fixed;" parent="1" vertex="1">
                    <mxGeometry x="480" y="134" width="50" height="50" as="geometry"/>
                </mxCell>
                <mxCell id="CsA70eIJGZtUb_FbTeEb-8" value="" style="whiteSpace=wrap;html=1;aspect=fixed;" parent="1" vertex="1">
                    <mxGeometry x="532" y="30" width="50" height="50" as="geometry"/>
                </mxCell>
                <mxCell id="CsA70eIJGZtUb_FbTeEb-9" value="" style="whiteSpace=wrap;html=1;aspect=fixed;" parent="1" vertex="1">
                    <mxGeometry x="532" y="82" width="50" height="50" as="geometry"/>
                </mxCell>
                <mxCell id="CsA70eIJGZtUb_FbTeEb-10" value="" style="whiteSpace=wrap;html=1;aspect=fixed;" parent="1" vertex="1">
                    <mxGeometry x="532" y="134" width="50" height="50" as="geometry"/>
                </mxCell>
                <mxCell id="CsA70eIJGZtUb_FbTeEb-11" value="" style="whiteSpace=wrap;html=1;aspect=fixed;" parent="1" vertex="1">
                    <mxGeometry x="220" y="186" width="50" height="50" as="geometry"/>
                </mxCell>
                <mxCell id="CsA70eIJGZtUb_FbTeEb-12" value="" style="whiteSpace=wrap;html=1;aspect=fixed;" parent="1" vertex="1">
                    <mxGeometry x="272" y="186" width="50" height="50" as="geometry"/>
                </mxCell>
                <mxCell id="CsA70eIJGZtUb_FbTeEb-13" value="" style="whiteSpace=wrap;html=1;aspect=fixed;" parent="1" vertex="1">
                    <mxGeometry x="324" y="186" width="50" height="50" as="geometry"/>
                </mxCell>
                <mxCell id="CsA70eIJGZtUb_FbTeEb-14" value="" style="whiteSpace=wrap;html=1;aspect=fixed;" parent="1" vertex="1">
                    <mxGeometry x="376" y="186" width="50" height="50" as="geometry"/>
                </mxCell>
                <mxCell id="CsA70eIJGZtUb_FbTeEb-15" value="" style="whiteSpace=wrap;html=1;aspect=fixed;" parent="1" vertex="1">
                    <mxGeometry x="428" y="186" width="50" height="50" as="geometry"/>
                </mxCell>
                <mxCell id="CsA70eIJGZtUb_FbTeEb-16" value="" style="whiteSpace=wrap;html=1;aspect=fixed;" parent="1" vertex="1">
                    <mxGeometry x="480" y="186" width="50" height="50" as="geometry"/>
                </mxCell>
                <mxCell id="CsA70eIJGZtUb_FbTeEb-17" value="" style="whiteSpace=wrap;html=1;aspect=fixed;" parent="1" vertex="1">
                    <mxGeometry x="532" y="186" width="50" height="50" as="geometry"/>
                </mxCell>
                <mxCell id="CsA70eIJGZtUb_FbTeEb-18" value="" style="whiteSpace=wrap;html=1;aspect=fixed;" parent="1" vertex="1">
                    <mxGeometry x="220" y="238" width="50" height="50" as="geometry"/>
                </mxCell>
                <mxCell id="CsA70eIJGZtUb_FbTeEb-19" value="" style="whiteSpace=wrap;html=1;aspect=fixed;" parent="1" vertex="1">
                    <mxGeometry x="272" y="238" width="50" height="50" as="geometry"/>
                </mxCell>
                <mxCell id="CsA70eIJGZtUb_FbTeEb-20" value="" style="whiteSpace=wrap;html=1;aspect=fixed;" parent="1" vertex="1">
                    <mxGeometry x="324" y="238" width="50" height="50" as="geometry"/>
                </mxCell>
                <mxCell id="CsA70eIJGZtUb_FbTeEb-21" value="" style="whiteSpace=wrap;html=1;aspect=fixed;" parent="1" vertex="1">
                    <mxGeometry x="376" y="238" width="50" height="50" as="geometry"/>
                </mxCell>
                <mxCell id="CsA70eIJGZtUb_FbTeEb-22" value="" style="whiteSpace=wrap;html=1;aspect=fixed;" parent="1" vertex="1">
                    <mxGeometry x="428" y="238" width="50" height="50" as="geometry"/>
                </mxCell>
                <mxCell id="CsA70eIJGZtUb_FbTeEb-23" value="" style="whiteSpace=wrap;html=1;aspect=fixed;" parent="1" vertex="1">
                    <mxGeometry x="480" y="238" width="50" height="50" as="geometry"/>
                </mxCell>
                <mxCell id="CsA70eIJGZtUb_FbTeEb-24" value="" style="whiteSpace=wrap;html=1;aspect=fixed;" parent="1" vertex="1">
                    <mxGeometry x="532" y="238" width="50" height="50" as="geometry"/>
                </mxCell>
                <mxCell id="7cRN5RLYOy5YG3jkbzWp-1" value="" style="ellipse;html=1;shape=endState;fillColor=#000000;strokeColor=#ff0000;" parent="1" vertex="1">
                    <mxGeometry x="230" y="248" width="30" height="30" as="geometry"/>
                </mxCell>
                <mxCell id="7cRN5RLYOy5YG3jkbzWp-5" value="" style="sketch=0;outlineConnect=0;fontColor=#232F3E;gradientColor=none;fillColor=#232F3D;strokeColor=none;dashed=0;verticalLabelPosition=bottom;verticalAlign=top;align=center;html=1;fontSize=12;fontStyle=0;aspect=fixed;pointerEvents=1;shape=mxgraph.aws4.user;" parent="1" vertex="1">
                    <mxGeometry x="486" y="36" width="38" height="38" as="geometry"/>
                </mxCell>
            </root>
        </mxGraphModel>
    </diagram>
</mxfile>